# xmcd
#
# Track frame offsets: 
#        150
#        23177
#        42265
#        67880
#        88225
#        103960
#        131615
#        149325
#        168137
#        174677
#        197817
#
# Disc length: 2848 seconds
#
# Revision: 4
# Processed by: cddbd v1.5.2PL0 Copyright (c) Steve Scherf et al.
# Submitted via: ExactAudioCopyFreeDBPlugin 1.0
#
DISCID=9b0b1e0b
DTITLE=Bo Diddley, Little Walter, Muddy Waters - Super Blues
DYEAR=1967
DGENRE=Blues
TTITLE0=Long Distance Call
TTITLE1=Who Do You Love
TTITLE2=I'm A Man
TTITLE3=Bo Diddley
TTITLE4=You Can't Judge A Book By It's Cover
TTITLE5=I Just Want To Make Love To You
TTITLE6=My Babe
TTITLE7=You Don't Love Me
TTITLE8=Studio Chatter
TTITLE9=Sad Hours
TTITLE10=Juke
EXTD=
EXTT0=
EXTT1=
EXTT2=
EXTT3=
EXTT4=
EXTT5=
EXTT6=
EXTT7=
EXTT8=
EXTT9=
EXTT10=
PLAYORDER=
